<?xml version="1.0" encoding="UTF-8"?>
<svg version="1.1" xmlns="http://www.w3.org/2000/svg" width="28" height="28">
<path d="M0 0 C1.32 0 2.64 0 4 0 C4 0.99 4 1.98 4 3 C5.65 2.34 7.3 1.68 9 1 C9.66 1.99 10.32 2.98 11 4 C10.67 4.66 10.34 5.32 10 6 C10.99 5.67 11.98 5.34 13 5 C13.66 6.32 14.32 7.64 15 9 C14.01 10.485 14.01 10.485 13 12 C13.99 12 14.98 12 16 12 C16 13.32 16 14.64 16 16 C15.34 16.66 14.68 17.32 14 18 C14.33 18.99 14.66 19.98 15 21 C14.67 21.66 14.34 22.32 14 23 C12.68 22.67 11.36 22.34 10 22 C10.33 23.32 10.66 24.64 11 26 C9.35 26.33 7.7 26.66 6 27 C6 26.34 6 25.68 6 25 C5.34 25 4.68 25 4 25 C4 25.99 4 26.98 4 28 C2.68 28 1.36 28 0 28 C0 27.01 0 26.02 0 25 C-0.78375 25.350625 -1.5675 25.70125 -2.375 26.0625 C-3.24125 26.371875 -4.1075 26.68125 -5 27 C-5.66 26.67 -6.32 26.34 -7 26 C-6.67 24.68 -6.34 23.36 -6 22 C-7.32 22.33 -8.64 22.66 -10 23 C-11.125 19.25 -11.125 19.25 -10 17 C-10.66 16.67 -11.32 16.34 -12 16 C-12 14.68 -12 13.36 -12 12 C-11.01 12 -10.02 12 -9 12 C-9 11.34 -9 10.68 -9 10 C-9.66 10 -10.32 10 -11 10 C-10.67 8.35 -10.34 6.7 -10 5 C-8.68 5.33 -7.36 5.66 -6 6 C-6.33 5.01 -6.66 4.02 -7 3 C-5.68 2.34 -4.36 1.68 -3 1 C-2.01 1.66 -1.02 2.32 0 3 C0 2.01 0 1.02 0 0 Z " fill="#2274BB" transform="translate(12,0)"/>
<path d="M0 0 C0.78375 0.474375 1.5675 0.94875 2.375 1.4375 C3.88948678 2.33898023 5.4235897 3.21179485 7 4 C7 3.34 7 2.68 7 2 C8.32 2 9.64 2 11 2 C11 3.65 11 5.3 11 7 C12.32 7 13.64 7 15 7 C15.36625971 11.51720311 15.36625971 11.51720311 13.625 13.8125 C12 15 12 15 10 15 C10 16.32 10 17.64 10 19 C8.68 19 7.36 19 6 19 C6 18.01 6 17.02 6 16 C5.21625 16.350625 4.4325 16.70125 3.625 17.0625 C2.325625 17.5265625 2.325625 17.5265625 1 18 C0.34 17.67 -0.32 17.34 -1 17 C-0.67 15.68 -0.34 14.36 0 13 C-1.32 13.33 -2.64 13.66 -4 14 C-3.125 10.125 -3.125 10.125 -2 9 C-1.60851239 7.48834346 -1.26027543 5.96530368 -0.9375 4.4375 C-0.76089844 3.61121094 -0.58429687 2.78492188 -0.40234375 1.93359375 C-0.26957031 1.29550781 -0.13679687 0.65742188 0 0 Z " fill="#2962AE" transform="translate(6,9)"/>
<path d="M0 0 C1.32 0 2.64 0 4 0 C4 0.99 4 1.98 4 3 C5.65 2.34 7.3 1.68 9 1 C9.66 1.99 10.32 2.98 11 4 C10.236875 4.144375 9.47375 4.28875 8.6875 4.4375 C5.91827092 4.9632594 5.91827092 4.9632594 3 6 C1.77030122 9.51190809 1.77030122 9.51190809 1 13 C-1.31 12.34 -3.62 11.68 -6 11 C-6.0825 12.093125 -6.165 13.18625 -6.25 14.3125 C-7 18 -7 18 -9.0625 19.9375 C-9.701875 20.288125 -10.34125 20.63875 -11 21 C-10.67 19.68 -10.34 18.36 -10 17 C-10.66 16.67 -11.32 16.34 -12 16 C-12 14.68 -12 13.36 -12 12 C-11.01 12 -10.02 12 -9 12 C-9 11.34 -9 10.68 -9 10 C-9.66 10 -10.32 10 -11 10 C-10.67 8.35 -10.34 6.7 -10 5 C-8.68 5.33 -7.36 5.66 -6 6 C-6.33 5.01 -6.66 4.02 -7 3 C-5.68 2.34 -4.36 1.68 -3 1 C-2.01 1.66 -1.02 2.32 0 3 C0 2.01 0 1.02 0 0 Z " fill="#2772B7" transform="translate(12,0)"/>
<path d="M0 0 C1.90234375 0.25390625 1.90234375 0.25390625 4 1 C4.94140625 2.77734375 4.94140625 2.77734375 5.5625 4.9375 C6.58677438 8.44293593 6.74503093 8.83002062 10 11 C9.67 12.32 9.34 13.64 9 15 C7.68 14.67 6.36 14.34 5 14 C5.33 15.32 5.66 16.64 6 18 C4.35 18.33 2.7 18.66 1 19 C1 18.34 1 17.68 1 17 C0.34 16.67 -0.32 16.34 -1 16 C-0.360625 15.4225 0.27875 14.845 0.9375 14.25 C2.98223868 12.01937599 3.58205199 10.92563609 4 8 C2.68 8 1.36 8 0 8 C0 5.36 0 2.72 0 0 Z " fill="#3063A8" transform="translate(17,8)"/>
<path d="M0 0 C2.4375 1.25 2.4375 1.25 5 3 C5.625 5 5.625 5 6 7 C7.47890069 8.73026102 7.47890069 8.73026102 9 10 C7.75 11.5625 7.75 11.5625 6 13 C3.24438141 12.91388692 2.23022041 12.22199825 0.25 10.3125 C-1.34590505 7.36007566 -1.28796546 5.31160281 -1 2 C-0.67 1.34 -0.34 0.68 0 0 Z " fill="#285C9F" transform="translate(6,9)"/>
<path d="M0 0 C1.32 0 2.64 0 4 0 C4 1.65 4 3.3 4 5 C5.32 5 6.64 5 8 5 C7.34 6.65 6.68 8.3 6 10 C3.69 10.33 1.38 10.66 -1 11 C-0.34 9.68 0.32 8.36 1 7 C0.01 6.34 -0.98 5.68 -2 5 C-2 4.01 -2 3.02 -2 2 C-1.34 2 -0.68 2 0 2 C0 1.34 0 0.68 0 0 Z " fill="#113D9B" transform="translate(13,11)"/>
<path d="M0 0 C1.32 0 2.64 0 4 0 C4 0.99 4 1.98 4 3 C5.65 2.34 7.3 1.68 9 1 C9.66 1.99 10.32 2.98 11 4 C7.40288072 4.72994559 3.79939671 5.40974758 0.1875 6.0625 C-0.78832031 6.23910156 -1.76414062 6.41570313 -2.76953125 6.59765625 C-3.87361328 6.79681641 -3.87361328 6.79681641 -5 7 C-5.66 5.68 -6.32 4.36 -7 3 C-5.68 2.34 -4.36 1.68 -3 1 C-2.01 1.66 -1.02 2.32 0 3 C0 2.01 0 1.02 0 0 Z " fill="#1E81C7" transform="translate(12,0)"/>
<path d="M0 0 C-0.66 2.31 -1.32 4.62 -2 7 C-3.98 6.34 -5.96 5.68 -8 5 C-8 4.34 -8 3.68 -8 3 C-5.04518508 0.25624329 -4.22528092 0 0 0 Z " fill="#579FC7" transform="translate(15,6)"/>
<path d="M0 0 C1.32 0.33 2.64 0.66 4 1 C5.125 5.75 5.125 5.75 4 8 C2.68 8 1.36 8 0 8 C0 5.36 0 2.72 0 0 Z " fill="#7B9799" transform="translate(17,8)"/>
<path d="M0 0 C-1.375 1.5 -1.375 1.5 -3 3 C-3.66 3 -4.32 3 -5 3 C-5 4.32 -5 5.64 -5 7 C-6.32 7 -7.64 7 -9 7 C-8.814375 6.38125 -8.62875 5.7625 -8.4375 5.125 C-7.76313824 2.95839822 -7.76313824 2.95839822 -9 1 C-2.25 -1.125 -2.25 -1.125 0 0 Z " fill="#2756A1" transform="translate(21,21)"/>
<path d="M0 0 C2.75 -0.25 2.75 -0.25 6 0 C8.375 2 8.375 2 10 4 C9.01 4 8.02 4 7 4 C6.67 4.66 6.34 5.32 6 6 C4.68 5.67 3.36 5.34 2 5 C2.66 3.68 3.32 2.36 4 1 C2.68 0.67 1.36 0.34 0 0 Z " fill="#2B61AB" transform="translate(11,5)"/>
<path d="M0 0 C1.98 0.66 3.96 1.32 6 2 C6 2.99 6 3.98 6 5 C4.68 5.33 3.36 5.66 2 6 C0 3 0 3 0 0 Z " fill="#5A707A" transform="translate(8,15)"/>
<path d="M0 0 C0.99 0.33 1.98 0.66 3 1 C2.67 2.65 2.34 4.3 2 6 C0.68 5.67 -0.64 5.34 -2 5 C-2 4.01 -2 3.02 -2 2 C-1.34 2 -0.68 2 0 2 C0 1.34 0 0.68 0 0 Z " fill="#03072B" transform="translate(13,11)"/>
</svg>
